<mxfile host="app.diagrams.net" modified="2024-04-06T18:36:01.202Z" agent="Mozilla/5.0 (Macintosh; Intel Mac OS X 10_15_7) AppleWebKit/605.1.15 (KHTML, like Gecko) Version/17.2.1 Safari/605.1.15" version="24.2.2" etag="HJnRxW3jOE5KWHpIySLc" type="github">
  <diagram name="Page-1" id="wxCbchn2Chx5s0cPIJcQ">
    <mxGraphModel>
      <root>
        <mxCell id="0" />
        <mxCell id="1" parent="0" />
      </root>
    </mxGraphModel>
  </diagram>
</mxfile>
